<?xml version="1.0" standalone="no"?>
<!DOCTYPE svg PUBLIC "-//W3C//DTD SVG 20010904//EN"
 "http://www.w3.org/TR/2001/REC-SVG-20010904/DTD/svg10.dtd">
<svg version="1.0" xmlns="http://www.w3.org/2000/svg"
 width="200.000000pt" height="200.000000pt" viewBox="0 0 200.000000 200.000000"
 preserveAspectRatio="xMidYMid meet">
<metadata>
Created by potrace 1.14, written by Peter Selinger 2001-2017
</metadata>
<g transform="translate(0.000000,200.000000) scale(0.100000,-0.100000)"
fill="#000000" stroke="none">
<path d="M839 1977 c-131 -45 -227 -135 -254 -241 -33 -125 -40 -257 -19 -356
5 -23 5 -24 -14 -7 -47 42 -70 -4 -52 -108 30 -176 37 -195 76 -195 19 0 24
-7 29 -37 3 -21 12 -72 20 -113 8 -42 15 -92 15 -112 0 -58 24 -100 102 -177
134 -135 239 -198 308 -186 63 11 312 217 332 275 9 25 18 6 25 -49 6 -54 -14
-176 -43 -261 -15 -41 -62 -249 -83 -363 l-8 -47 363 0 364 0 0 204 0 204
-112 40 c-134 48 -313 131 -375 173 -24 17 -58 53 -74 79 -16 26 -36 51 -44
54 -20 7 -20 86 2 197 15 81 18 88 43 93 30 5 50 48 76 154 29 122 12 182 -42
147 -26 -17 -27 -17 -19 1 4 11 12 56 18 101 14 116 -2 274 -34 327 -61 98
-160 168 -299 212 -72 22 -222 18 -301 -9z"/>
<path d="M586 700 c-16 -25 -45 -49 -76 -65 -65 -33 -244 -101 -393 -150
l-117 -39 0 -223 0 -223 350 0 c293 0 350 2 350 14 0 8 -7 47 -15 87 -8 41
-19 121 -24 179 -5 58 -17 125 -25 149 -21 58 -33 238 -18 280 15 43 0 39 -32
-9z"/>
<path d="M844 432 c-17 -15 -50 -48 -74 -74 l-42 -47 61 4 c66 5 66 4 64 -63
-1 -10 2 -10 13 -1 9 7 14 7 14 1 0 -13 -26 -23 -45 -16 -8 4 -15 1 -15 -4 0
-15 27 -40 60 -57 32 -17 46 -47 32 -71 -9 -15 -10 -15 -17 5 -7 22 -52 58
-61 48 -3 -3 -1 -13 5 -24 28 -50 41 -95 31 -114 -10 -18 -5 -19 160 -19 l170
0 0 31 c0 31 0 31 -25 15 -23 -15 -25 -15 -33 2 -22 43 -23 72 -1 95 11 12 27
34 35 49 12 22 12 27 -1 32 -18 6 -19 26 -4 60 l12 25 19 -24 c23 -30 38 -32
38 -6 0 23 -81 136 -108 150 -12 6 -33 6 -62 0 -24 -5 -50 -7 -58 -4 -9 3 -31
8 -51 11 -20 3 -44 10 -53 15 -24 13 -30 11 -64 -19z"/>
</g>
</svg>
